<svg xmlns="http://www.w3.org/2000/svg"  viewBox="0 0 48 48" id="bar-chart">
  <g>
    <path d="M47 46h-2V15h-6v31h-5V29h-6v17h-5V23h-6v23h-5V35H6v11H2V1a1 1 0 0 0-2 0v46a1 1 0 0 0 1 1h46a1 1 0 0 0 0-2Z"></path>
    <path d="M29 7.59v-5.5a6 6 0 0 0-3.89 9.38zM35.91 9h-5.5l-3.88 3.89A6 6 0 0 0 35.91 9zM31 2.09V7h4.91A6 6 0 0 0 31 2.09zM10 7h9a1 1 0 0 0 0-2h-9a1 1 0 0 0 0 2zm0 4h5a1 1 0 0 0 0-2h-5a1 1 0 0 0 0 2zM5.44 6.83A1 1 0 1 0 6.19 5a1 1 0 0 0-.75 1.83zM6 11a1 1 0 1 0-.71-.29A1 1 0 0 0 6 11z"></path>
  </g>
</svg>